<svg width="255" height="231" viewBox="0 0 255 231" fill="none" xmlns="http://www.w3.org/2000/svg">
<g id="Group">
<path id="Vector" d="M111.344 53.5825C109.513 56.8484 101.512 56.6443 98.0534 57.699C93.1711 59.1959 88.5261 61.3051 84.1524 63.9588C75.4727 69.266 68.0474 76.7165 62.9956 85.5959C51.5357 105.838 54.3498 127.475 64.284 147.343C65.9792 150.711 68.4543 153.501 70.8955 156.257C72.6924 158.264 75.7439 160.101 76.8967 162.38C58.3845 174.424 29.2262 169.525 12.138 157.481C10.3071 156.189 8.06939 154.42 6.781 152.31C5.96727 150.984 5.4587 149.487 4.95012 148.024C-8.91705 104.852 7.01833 56.3041 41.059 27.3526C59.1982 12.0093 82.0841 2.38143 105.682 0.238133C107.31 0.102051 109.073 -1.09822e-05 110.463 0.918546C112.768 2.41545 111.446 7.72267 111.446 10.0701C111.446 14.5608 111.48 19.0856 111.514 23.5763C111.548 32.8639 111.582 42.1515 111.615 51.4392C111.582 52.1536 111.683 53.0041 111.344 53.5825Z" fill="#FED322"/>
<path id="Vector_2" d="M255 90.6309C255 105.566 255 120.501 255 135.436C255 137.137 241.98 140.777 240.319 141.254C235.03 142.751 229.707 143.771 224.214 144.077C201.6 145.302 179.019 137.477 162.744 121.556C162.71 121.522 162.71 121.522 162.677 121.488C162.202 120.977 161.727 120.467 161.252 119.957C158.303 116.657 155.523 113.153 153.149 109.41C151.013 106.076 149.589 102.3 147.792 98.7278C145.758 94.7134 144.605 90.3928 143.757 86.0722C142.808 81.0371 142.198 75.866 142.13 70.7629C142.062 60.7948 142.028 50.7928 142.028 40.8247C142.028 28.6113 142.062 16.3979 142.062 4.15052C142.028 0.272165 142.3 0 146.131 0H193.089C197.158 0 197.158 0 197.158 4.15052C197.158 26.9784 197.124 49.8062 197.124 72.668C197.124 75.1516 198.175 77.2608 199.124 79.4041C200.582 82.7041 203.295 84.9495 206.38 86.5485C207.872 87.2969 209.635 87.5691 211.33 87.8072C213.093 88.0794 214.89 88.1134 216.687 88.1134C228.588 88.1474 240.523 88.1134 252.423 88.1134C254.661 88.1134 255 88.4196 255 90.6309Z" fill="#2E3199"/>
<path id="Vector_3" d="M255 228.21C255 230.83 254.83 231 252.186 231C240.726 231 229.232 231 217.772 231H217.23C190.106 231 162.982 231 135.858 230.966C147.724 218.514 155.014 201.606 155.014 183.031C155.014 180.547 154.878 178.098 154.641 175.648C171.526 175.648 188.41 175.648 205.295 175.648C205.532 175.648 205.77 175.614 206.177 175.614V143.329C210.177 143.941 214.28 144.281 218.45 144.281C231.605 144.281 244.049 141.083 255 135.402C255 138.192 255 140.947 255 143.737C254.966 171.906 255 200.041 255 228.21Z" fill="#44DA83"/>
<path id="Vector_4" d="M155.014 183.031C155.014 201.606 147.724 218.515 135.858 230.966C127.11 230.966 118.396 230.932 109.649 230.932C105.886 230.932 102.122 230.15 98.3586 229.707C97.1041 229.571 95.8835 229.401 94.629 229.231C94.3917 229.197 94.1205 229.265 93.917 229.197C92.5947 228.857 91.3063 228.517 89.984 228.176C88.2888 227.734 86.5596 227.292 84.8644 226.816C82.5588 226.169 80.2533 225.557 77.9817 224.774C75.9134 224.06 73.913 223.141 71.8787 222.325C71.6414 222.223 71.4041 222.155 71.1667 222.053C70.014 221.611 68.8612 221.236 67.7762 220.658C64.7587 219.093 61.6733 217.664 58.6897 216.031C57.4013 215.317 56.1468 214.602 54.9262 213.82C50.2473 210.826 45.9075 207.322 41.4998 203.954C39.7706 202.627 38.2449 201.062 36.5836 199.633C31.769 195.483 27.7682 190.618 23.9031 185.651C21.428 182.487 19.1225 179.187 17.0542 175.751C15.9354 173.88 14.8843 172.008 13.935 170.035C12.138 166.293 10.2393 162.551 8.54407 158.74C7.69644 156.801 7.12006 154.726 6.44196 152.719C6.67929 152.957 6.95053 153.161 7.22177 153.399C7.49301 153.637 7.73035 153.841 8.00159 154.08C8.27283 154.318 8.54407 154.556 8.84922 154.794C9.08655 154.998 9.35779 155.202 9.59513 155.406C9.86637 155.611 10.1376 155.849 10.4088 156.053C10.6801 156.257 10.9513 156.461 11.2226 156.665C11.7651 157.073 12.3414 157.482 12.8839 157.856C13.1552 158.06 13.4603 158.264 13.7315 158.434C14.0028 158.638 14.3079 158.808 14.5792 159.013C15.1556 159.387 15.7319 159.761 16.3083 160.101C16.6135 160.271 16.8847 160.441 17.1899 160.646C17.495 160.85 17.8002 160.986 18.0714 161.156C18.3765 161.326 18.6817 161.496 18.9868 161.666C19.292 161.836 19.5971 162.006 19.9023 162.142C20.1735 162.279 20.4447 162.415 20.716 162.551C20.9872 162.687 21.2585 162.823 21.5297 162.959C22.3434 163.367 23.1911 163.741 24.0387 164.116C24.3099 164.252 24.6151 164.354 24.8863 164.456C26.0052 164.932 27.158 165.374 28.3446 165.749C28.6498 165.851 28.921 165.953 29.2262 166.055C29.5313 166.157 29.8026 166.259 30.1077 166.327C30.4128 166.429 30.6841 166.497 30.9892 166.599C31.2944 166.701 31.5995 166.769 31.8708 166.871C32.1759 166.939 32.4811 167.041 32.7523 167.109C33.0235 167.178 33.2948 167.246 33.566 167.314C33.9051 167.382 34.2441 167.484 34.5832 167.552C34.8883 167.62 35.1935 167.688 35.4986 167.756C35.8037 167.824 36.1089 167.892 36.414 167.96C36.6853 168.028 36.9565 168.062 37.2617 168.13C37.9059 168.232 38.5501 168.368 39.2282 168.47C39.5333 168.538 39.8724 168.572 40.1775 168.606C40.7878 168.708 41.3981 168.776 42.0423 168.845H42.0762C42.3813 168.879 42.7204 168.913 43.0255 168.947C43.2629 168.981 43.4663 168.981 43.7036 169.015C43.8732 169.015 44.0427 169.049 44.2461 169.049C44.4834 169.049 44.7208 169.083 44.9581 169.083C45.2633 169.117 45.6023 169.117 45.9075 169.117C46.2126 169.151 46.5517 169.151 46.8568 169.151C47.1619 169.151 47.4671 169.151 47.7722 169.185H47.874C48.1791 169.185 48.4842 169.185 48.8233 169.185C59.0965 169.185 68.8273 166.701 77.3714 162.313C77.7104 162.585 78.0156 162.857 78.3207 163.129C78.558 163.333 78.7954 163.537 78.9988 163.707C82.2537 166.361 85.9154 168.334 89.7128 170.103C91.8488 171.09 94.0188 171.94 96.2565 172.655C98.0535 173.233 99.8504 173.812 101.681 174.254C102.461 174.458 103.241 174.628 103.987 174.764C106.733 175.274 109.547 175.649 112.294 175.649C116.667 175.649 121.007 175.649 125.381 175.683C135.112 175.683 144.842 175.683 154.573 175.717C154.878 178.098 155.014 180.548 155.014 183.031Z" fill="#FD038C"/>
</g>
</svg>
